#Comment line ignore any data following # character 
#Hierarchical Translation and Rotation (.htr) file 
[Header]	
#Header keywords are followed by a single value 
FileType HTR		#Single word string
DataType HTRS		#Translation followed by rotation and scale data
FileVersion 1		#integer
NumSegments 84		#integer
NumFrames 2		#integer
DataFrameRate 30		#integer, data frame rate in this file
EulerRotationOrder ZYX
CalibrationUnits mm
RotationUnits Degrees
GlobalAxisofGravity Y
BoneLengthAxis Y
ScaleFactor 1.00
[SegmentNames&Hierarchy]
#CHILD	PARENT
MASTER GLOBAL
root MASTER
chest root
L_mid_tent01 root
R_mid_tent01 root
spine01 root
Bip01_Neck chest
L_humerus chest
R_humerus chest
weapon_bone chest
Bip01_Head Bip01_Neck
eye_left_bone Bip01_Head
eye_right_bone Bip01_Head
L_forearm L_humerus
L_front_hand L_forearm
L_weapon_bone L_forearm
L_front_hand01_01 L_front_hand
L_front_hand02_01 L_front_hand
L_front_hand03_01 L_front_hand
L_front_hand01_02 L_front_hand01_01
L_front_hand02_02 L_front_hand02_01
L_front_hand03_02 L_front_hand03_01
R_forearm R_humerus
R_front_hand R_forearm
R_weapon_bone R_forearm
R_front_hand01_01 R_front_hand
R_front_hand02_01 R_front_hand
R_front_hand03_01 R_front_hand
R_front_hand01_02 R_front_hand01_01
R_front_hand02_02 R_front_hand02_01
R_front_hand03_02 R_front_hand03_01
null_rope01_connect L_mid_tent01
Rope1_Seg01 null_rope01_connect
Rope1_Seg02 Rope1_Seg01
Rope1_Seg03 Rope1_Seg02
Rope1_Seg04 Rope1_Seg03
Rope1_Seg05 Rope1_Seg04
Rope1_Seg06 Rope1_Seg05
Rope1_Seg07 Rope1_Seg06
Rope1_Seg09 Rope1_Seg07
L_mid_hand01 Rope1_Seg09
L_mid_hand02 Rope1_Seg09
L_mid_hand03 Rope1_Seg09
null_rope02_connect R_mid_tent01
Rope2_Seg01 null_rope02_connect
Rope2_Seg02 Rope2_Seg01
Rope2_Seg03 Rope2_Seg02
Rope2_Seg04 Rope2_Seg03
Rope2_Seg05 Rope2_Seg04
Rope2_Seg06 Rope2_Seg05
Rope2_Seg07 Rope2_Seg06
Rope2_Seg09 Rope2_Seg07
R_mid_hand01 Rope2_Seg09
R_mid_hand02 Rope2_Seg09
R_mid_hand03 Rope2_Seg09
spine02 spine01
spine03 spine02
pelvis spine03
null_rope03_connect pelvis
null_rope04_connect pelvis
Rope3_Seg01 null_rope03_connect
Rope3_Seg02 Rope3_Seg01
Rope3_Seg03 Rope3_Seg02
Rope3_Seg04 Rope3_Seg03
Rope3_Seg05 Rope3_Seg04
Rope3_Seg06 Rope3_Seg05
Rope3_Seg07 Rope3_Seg06
Rope3_Seg08 Rope3_Seg07
Rope3_Seg09 Rope3_Seg08
R_rear_hand01 Rope3_Seg09
R_rear_hand02 Rope3_Seg09
R_rear_hand03 Rope3_Seg09
Rope4_Seg01 null_rope04_connect
Rope4_Seg02 Rope4_Seg01
Rope4_Seg03 Rope4_Seg02
Rope4_Seg04 Rope4_Seg03
Rope4_Seg05 Rope4_Seg04
Rope4_Seg06 Rope4_Seg05
Rope4_Seg07 Rope4_Seg06
Rope4_Seg08 Rope4_Seg07
Rope4_Seg09 Rope4_Seg08
L_rear_hand01 Rope4_Seg09
L_rear_hand02 Rope4_Seg09
L_rear_hand03 Rope4_Seg09
[BasePosition]
#SegmentName Tx, Ty, Tz, Rx, Ry, Rz, BoneLength
MASTER 0.000000 0.000000 0.000000 -90.000000 0.000000 0.000000 10.000000 
root 0.000000 0.000000 0.000000 0.000000 0.000000 0.000000 10.000000 
chest 0.000000 0.000000 0.000000 0.000000 0.000000 0.000000 10.000000 
L_mid_tent01 0.000000 0.000000 0.000000 0.000000 0.000000 0.000000 10.000000 
R_mid_tent01 0.000000 0.000000 0.000000 0.000000 0.000000 0.000000 10.000000 
spine01 0.000000 0.000000 0.000000 0.000000 0.000000 0.000000 10.000000 
Bip01_Neck 0.000000 0.000000 0.000000 0.000000 0.000000 0.000000 10.000000 
L_humerus 0.000000 0.000000 0.000000 0.000000 0.000000 0.000000 10.000000 
R_humerus 0.000000 0.000000 0.000000 0.000000 0.000000 0.000000 10.000000 
weapon_bone 0.000000 0.000000 0.000000 0.000000 0.000000 0.000000 10.000000 
Bip01_Head 0.000000 0.000000 0.000000 0.000000 0.000000 0.000000 10.000000 
eye_left_bone 0.000000 0.000000 0.000000 0.000000 0.000000 0.000000 10.000000 
eye_right_bone 0.000000 0.000000 0.000000 0.000000 0.000000 0.000000 10.000000 
L_forearm 0.000000 0.000000 0.000000 0.000000 0.000000 0.000000 10.000000 
L_front_hand 0.000000 0.000000 0.000000 0.000000 0.000000 0.000000 10.000000 
L_weapon_bone 0.000000 0.000000 0.000000 0.000000 0.000000 0.000000 10.000000 
L_front_hand01_01 0.000000 0.000000 0.000000 0.000000 0.000000 0.000000 10.000000 
L_front_hand02_01 0.000000 0.000000 0.000000 0.000000 0.000000 0.000000 10.000000 
L_front_hand03_01 0.000000 0.000000 0.000000 0.000000 0.000000 0.000000 10.000000 
L_front_hand01_02 0.000000 0.000000 0.000000 0.000000 0.000000 0.000000 10.000000 
L_front_hand02_02 0.000000 0.000000 0.000000 0.000000 0.000000 0.000000 10.000000 
L_front_hand03_02 0.000000 0.000000 0.000000 0.000000 0.000000 0.000000 10.000000 
R_forearm 0.000000 0.000000 0.000000 0.000000 0.000000 0.000000 10.000000 
R_front_hand 0.000000 0.000000 0.000000 0.000000 0.000000 0.000000 10.000000 
R_weapon_bone 0.000000 0.000000 0.000000 0.000000 0.000000 0.000000 10.000000 
R_front_hand01_01 0.000000 0.000000 0.000000 0.000000 0.000000 0.000000 10.000000 
R_front_hand02_01 0.000000 0.000000 0.000000 0.000000 0.000000 0.000000 10.000000 
R_front_hand03_01 0.000000 0.000000 0.000000 0.000000 0.000000 0.000000 10.000000 
R_front_hand01_02 0.000000 0.000000 0.000000 0.000000 0.000000 0.000000 10.000000 
R_front_hand02_02 0.000000 0.000000 0.000000 0.000000 0.000000 0.000000 10.000000 
R_front_hand03_02 0.000000 0.000000 0.000000 0.000000 0.000000 0.000000 10.000000 
null_rope01_connect 0.000000 0.000000 0.000000 0.000000 0.000000 0.000000 10.000000 
Rope1_Seg01 0.000000 0.000000 0.000000 0.000000 0.000000 0.000000 10.000000 
Rope1_Seg02 0.000000 0.000000 0.000000 0.000000 0.000000 0.000000 10.000000 
Rope1_Seg03 0.000000 0.000000 0.000000 0.000000 0.000000 0.000000 10.000000 
Rope1_Seg04 0.000000 0.000000 0.000000 0.000000 0.000000 0.000000 10.000000 
Rope1_Seg05 0.000000 0.000000 0.000000 0.000000 0.000000 0.000000 10.000000 
Rope1_Seg06 0.000000 0.000000 0.000000 0.000000 0.000000 0.000000 10.000000 
Rope1_Seg07 0.000000 0.000000 0.000000 0.000000 0.000000 0.000000 10.000000 
Rope1_Seg09 0.000000 0.000000 0.000000 0.000000 0.000000 0.000000 10.000000 
L_mid_hand01 0.000000 0.000000 0.000000 0.000000 0.000000 0.000000 10.000000 
L_mid_hand02 0.000000 0.000000 0.000000 0.000000 0.000000 0.000000 10.000000 
L_mid_hand03 0.000000 0.000000 0.000000 0.000000 0.000000 0.000000 10.000000 
null_rope02_connect 0.000000 0.000000 0.000000 0.000000 0.000000 0.000000 10.000000 
Rope2_Seg01 0.000000 0.000000 0.000000 0.000000 0.000000 0.000000 10.000000 
Rope2_Seg02 0.000000 0.000000 0.000000 0.000000 0.000000 0.000000 10.000000 
Rope2_Seg03 0.000000 0.000000 0.000000 0.000000 0.000000 0.000000 10.000000 
Rope2_Seg04 0.000000 0.000000 0.000000 0.000000 0.000000 0.000000 10.000000 
Rope2_Seg05 0.000000 0.000000 0.000000 0.000000 0.000000 0.000000 10.000000 
Rope2_Seg06 0.000000 0.000000 0.000000 0.000000 0.000000 0.000000 10.000000 
Rope2_Seg07 0.000000 0.000000 0.000000 0.000000 0.000000 0.000000 10.000000 
Rope2_Seg09 0.000000 0.000000 0.000000 0.000000 0.000000 0.000000 10.000000 
R_mid_hand01 0.000000 0.000000 0.000000 0.000000 0.000000 0.000000 10.000000 
R_mid_hand02 0.000000 0.000000 0.000000 0.000000 0.000000 0.000000 10.000000 
R_mid_hand03 0.000000 0.000000 0.000000 0.000000 0.000000 0.000000 10.000000 
spine02 0.000000 0.000000 0.000000 0.000000 0.000000 0.000000 10.000000 
spine03 0.000000 0.000000 0.000000 0.000000 0.000000 0.000000 10.000000 
pelvis 0.000000 0.000000 0.000000 0.000000 0.000000 0.000000 10.000000 
null_rope03_connect 0.000000 0.000000 0.000000 0.000000 0.000000 0.000000 10.000000 
null_rope04_connect 0.000000 0.000000 0.000000 0.000000 0.000000 0.000000 10.000000 
Rope3_Seg01 0.000000 0.000000 0.000000 0.000000 0.000000 0.000000 10.000000 
Rope3_Seg02 0.000000 0.000000 0.000000 0.000000 0.000000 0.000000 10.000000 
Rope3_Seg03 0.000000 0.000000 0.000000 0.000000 0.000000 0.000000 10.000000 
Rope3_Seg04 0.000000 0.000000 0.000000 0.000000 0.000000 0.000000 10.000000 
Rope3_Seg05 0.000000 0.000000 0.000000 0.000000 0.000000 0.000000 10.000000 
Rope3_Seg06 0.000000 0.000000 0.000000 0.000000 0.000000 0.000000 10.000000 
Rope3_Seg07 0.000000 0.000000 0.000000 0.000000 0.000000 0.000000 10.000000 
Rope3_Seg08 0.000000 0.000000 0.000000 0.000000 0.000000 0.000000 10.000000 
Rope3_Seg09 0.000000 0.000000 0.000000 0.000000 0.000000 0.000000 10.000000 
R_rear_hand01 0.000000 0.000000 0.000000 0.000000 0.000000 0.000000 10.000000 
R_rear_hand02 0.000000 0.000000 0.000000 0.000000 0.000000 0.000000 10.000000 
R_rear_hand03 0.000000 0.000000 0.000000 0.000000 0.000000 0.000000 10.000000 
Rope4_Seg01 0.000000 0.000000 0.000000 0.000000 0.000000 0.000000 10.000000 
Rope4_Seg02 0.000000 0.000000 0.000000 0.000000 0.000000 0.000000 10.000000 
Rope4_Seg03 0.000000 0.000000 0.000000 0.000000 0.000000 0.000000 10.000000 
Rope4_Seg04 0.000000 0.000000 0.000000 0.000000 0.000000 0.000000 10.000000 
Rope4_Seg05 0.000000 0.000000 0.000000 0.000000 0.000000 0.000000 10.000000 
Rope4_Seg06 0.000000 0.000000 0.000000 0.000000 0.000000 0.000000 10.000000 
Rope4_Seg07 0.000000 0.000000 0.000000 0.000000 0.000000 0.000000 10.000000 
Rope4_Seg08 0.000000 0.000000 0.000000 0.000000 0.000000 0.000000 10.000000 
Rope4_Seg09 0.000000 0.000000 0.000000 0.000000 0.000000 0.000000 10.000000 
L_rear_hand01 0.000000 0.000000 0.000000 0.000000 0.000000 0.000000 10.000000 
L_rear_hand02 0.000000 0.000000 0.000000 0.000000 0.000000 0.000000 10.000000 
L_rear_hand03 0.000000 0.000000 0.000000 0.000000 0.000000 0.000000 10.000000 
#Beginning of Data. Separated by tabs
#Fr	Tx	Ty	Tz	Rx	Ry	Rz	SF
[MASTER]
30 -0.000878 5898.668457 -30.148661 0.001660 0.001660 0.001660 5898.745117
31 -0.000829 6000.000000 -0.000074 0.001660 0.001660 0.001660 6000.000000
[root]
30 -16.502119 4.013123 1452.072754 -91.721603 -12.771715 -89.495789 1452.172119
31 -16.502115 9.359740 1448.320068 -91.728912 -11.584503 -89.471642 1448.444336
[chest]
30 -84.512650 -34.090519 0.000000 -2.147489 0.098136 169.718613 91.129311
31 -84.512650 -34.090519 0.000000 -2.170494 -0.006436 168.239609 91.129311
[L_mid_tent01]
30 27.299177 22.179272 -249.918732 -20.661392 12.026043 12.983022 252.381729
31 27.299179 22.179276 -249.918732 -20.661398 12.026046 12.983024 252.381729
[R_mid_tent01]
30 23.228794 24.509907 226.238495 -165.192200 -17.956036 24.056787 228.744751
31 23.228794 24.509907 226.238495 -165.192215 -17.956036 24.056789 228.744751
[spine01]
30 -0.361383 -0.195265 0.000000 0.001952 0.001304 22.520630 0.410763
31 -0.361383 -0.195265 0.000000 0.001947 0.001312 22.051847 0.410763
[Bip01_Neck]
30 165.484543 71.581718 0.000119 176.643677 -1.657967 43.431911 180.302734
31 165.484543 71.581718 0.000119 176.643677 -1.657967 43.431919 180.302734
[L_humerus]
30 -13.983130 -135.272980 -120.471481 -5.490018 68.834740 84.560745 181.680161
31 -13.983130 -135.272980 -120.471481 -5.480137 68.873428 84.573517 181.680161
[R_humerus]
30 -13.983309 -135.273102 125.287651 27.860888 -69.852318 67.790443 184.909012
31 -13.983309 -135.273102 125.287651 27.897175 -69.888847 67.752357 184.909012
[weapon_bone]
30 235.964890 -300.705902 0.000000 0.000000 -89.951546 -128.212341 382.234833
31 235.964890 -300.705902 0.000000 0.000000 -89.951546 -128.212341 382.234833
[Bip01_Head]
30 213.326447 186.042465 7.559204 5.200446 6.151311 -43.834991 283.155640
31 213.326416 186.042465 7.559204 5.200446 6.151312 -43.834995 283.155609
[eye_left_bone]
30 -24.626970 125.451866 -64.772606 0.000000 -90.000000 -99.840431 143.318359
31 -24.626970 125.451866 -64.772606 0.000000 -90.000000 -99.840431 143.318359
[eye_right_bone]
30 -24.626970 125.451866 64.327362 0.000000 -89.965736 80.156380 143.117676
31 -24.626970 125.451866 64.327362 0.000000 -90.000000 80.156387 143.117676
[L_forearm]
30 322.776093 0.000000 -0.000119 0.000396 -0.002314 -109.432098 322.776093
31 322.776093 0.000000 -0.000119 0.000396 -0.002314 -109.419975 322.776093
[L_front_hand]
30 241.149185 -0.042021 -3.300071 -178.667953 -1.835447 -27.422350 241.171753
31 241.149185 -0.042021 -3.300071 -178.667953 -1.835448 -27.422352 241.171753
[L_weapon_bone]
30 156.183838 0.000000 0.000000 0.000014 0.000007 0.000001 156.183838
31 156.183838 0.000000 0.000000 0.000014 0.000007 0.000001 156.183838
[L_front_hand01_01]
30 86.095154 20.947098 -0.655860 -0.360010 -0.482183 74.749420 88.609184
31 86.095154 20.947098 -0.655860 -0.365371 -0.478091 75.092117 88.609184
[L_front_hand02_01]
30 86.935165 -11.437475 24.513514 153.427811 -59.611076 -60.242897 91.046425
31 86.935165 -11.437475 24.513514 153.946487 -59.758575 -60.843483 91.046425
[L_front_hand03_01]
30 86.637497 -14.123976 -20.424902 -153.017059 57.836376 -61.645977 90.126129
31 86.637497 -14.123976 -20.424902 -153.504349 57.989811 -62.217361 90.126129
[L_front_hand01_02]
30 71.020905 -0.000179 0.000030 0.000327 -0.002324 -106.003113 71.020905
31 71.020905 -0.000179 0.000030 0.000328 -0.002324 -106.058144 71.020905
[L_front_hand02_02]
30 71.020927 -0.000119 0.000060 0.000327 -0.002324 -106.003113 71.020927
31 71.020927 -0.000119 0.000060 0.000328 -0.002324 -106.058144 71.020927
[L_front_hand03_02]
30 71.020905 -0.000060 0.000060 0.000327 -0.002324 -106.003113 71.020905
31 71.020905 -0.000060 0.000060 0.000328 -0.002324 -106.058144 71.020905
[R_forearm]
30 322.776428 -0.000060 0.000030 0.202096 0.065179 -108.075027 322.776428
31 322.776428 -0.000060 0.000030 0.202103 0.065158 -108.062820 322.776428
[R_front_hand]
30 238.847015 -0.006795 2.210259 -2.635298 -10.645461 -26.312506 238.857239
31 238.847015 -0.006795 2.210259 -2.635299 -10.645463 -26.312508 238.857239
[R_weapon_bone]
30 155.664093 0.002503 -0.000030 0.003487 0.001180 -90.988930 155.664078
31 155.664093 0.002503 -0.000030 0.003487 0.001180 -90.988930 155.664078
[R_front_hand01_01]
30 87.624611 14.231146 22.918642 -154.633484 -59.950619 61.746037 91.683487
31 87.624611 14.231146 22.918642 -154.633499 -59.950634 61.746063 91.683487
[R_front_hand02_01]
30 89.356956 14.367283 -19.491137 154.602661 58.302849 63.744389 92.579636
31 89.356956 14.367283 -19.491137 154.602676 58.302864 63.744400 92.579636
[R_front_hand03_01]
30 87.286232 -22.307278 -0.143439 0.162155 -0.423168 -75.767921 90.091743
31 87.286232 -22.307278 -0.143439 0.162155 -0.423168 -75.767921 90.091743
[R_front_hand01_02]
30 71.020905 0.000060 0.000119 0.002323 -0.000334 106.381714 71.020905
31 71.020905 0.000060 0.000119 0.002323 -0.000334 106.381729 71.020905
[R_front_hand02_02]
30 71.020844 -0.000030 -0.000119 0.002323 -0.000334 106.381714 71.020836
31 71.020844 -0.000030 -0.000119 0.002323 -0.000334 106.381729 71.020836
[R_front_hand03_02]
30 71.020905 0.000000 0.000030 0.002323 -0.000334 106.381714 71.020905
31 71.020905 0.000000 0.000030 0.002323 -0.000334 106.381729 71.020905
[null_rope01_connect]
30 328.732483 0.000000 -0.000238 -153.232620 -64.802788 -118.974945 328.732483
31 328.732483 0.000000 -0.000238 -154.483353 -64.791336 -118.914322 328.732483
[Rope1_Seg01]
30 -0.000037 0.000001 0.000148 55.731327 3.398747 -123.041710 0.000152
31 -0.000038 0.000000 0.000153 56.369274 4.250984 -123.175827 0.000157
[Rope1_Seg02]
30 139.999863 -0.000179 0.000000 -15.442520 4.975106 3.453942 139.999863
31 139.999863 -0.000179 0.000000 -16.333740 5.112311 3.349390 139.999863
[Rope1_Seg03]
30 139.999924 0.000060 -0.000060 -15.016861 4.267646 4.632248 139.999924
31 139.999924 0.000060 -0.000060 -15.997768 4.391150 4.623933 139.999924
[Rope1_Seg04]
30 139.999924 -0.000060 -0.000119 -13.935822 3.282060 6.538123 139.999924
31 139.999924 -0.000060 -0.000119 -14.637302 3.301058 6.625580 139.999924
[Rope1_Seg05]
30 139.999832 0.000119 -0.000060 -4.671417 -1.037957 5.243287 139.999832
31 139.999832 0.000119 -0.000060 -4.429906 -1.293518 5.196162 139.999832
[Rope1_Seg06]
30 139.999954 0.000119 -0.000060 -1.282738 -0.913001 2.257579 139.999954
31 139.999954 0.000119 -0.000060 -1.131527 -1.040025 2.218041 139.999954
[Rope1_Seg07]
30 139.999985 0.000060 0.000000 -0.992636 -0.396201 1.464171 139.999985
31 139.999985 0.000060 0.000000 -0.943846 -0.451310 1.454562 139.999985
[Rope1_Seg09]
30 121.602913 0.000119 -0.000089 -89.793175 -1.359789 0.847147 121.602913
31 121.602913 0.000119 -0.000089 -89.793175 -1.359789 0.847147 121.602913
[L_mid_hand01]
30 103.859421 1.038730 8.195221 130.544373 -67.584534 -38.866943 104.187431
31 103.859421 1.038730 8.195221 130.544373 -67.584534 -38.866943 104.187431
[L_mid_hand02]
30 105.572853 -4.139662 -10.864139 -168.923172 43.409309 -73.498886 106.211075
31 105.572853 -4.139662 -10.864139 -168.923172 43.409321 -73.498909 106.211075
[L_mid_hand03]
30 104.641464 17.579376 -3.913581 -6.012627 17.808178 74.893677 106.179977
31 104.641464 17.579376 -3.913581 -6.012628 17.808178 74.893677 106.179977
[null_rope02_connect]
30 328.732849 0.000179 -0.000119 -139.075119 68.097771 -35.215820 328.732849
31 328.732849 0.000179 -0.000119 -140.208801 68.099243 -35.150642 328.732849
[Rope2_Seg01]
30 0.000075 0.000005 0.000000 23.678858 11.450192 -42.492569 0.000075
31 0.000076 0.000000 0.000000 20.802912 12.306238 -42.159325 0.000076
[Rope2_Seg02]
30 139.999741 -0.000060 -0.000119 42.249779 -11.086982 -8.776518 139.999756
31 139.999741 -0.000060 -0.000119 46.796581 -10.583317 -9.494379 139.999756
[Rope2_Seg03]
30 140.000107 0.000030 0.000000 1.550668 -9.783977 3.369258 140.000107
31 140.000107 0.000030 0.000000 1.231650 -9.761986 3.565485 140.000107
[Rope2_Seg04]
30 139.999802 0.000000 -0.000060 7.304163 -10.130125 -1.273459 139.999802
31 139.999802 0.000000 -0.000060 7.417893 -10.214162 -1.194610 139.999802
[Rope2_Seg05]
30 139.999985 -0.000060 0.000119 9.667017 -9.580007 -5.353808 139.999985
31 139.999985 -0.000060 0.000119 9.778824 -9.698812 -5.249619 139.999985
[Rope2_Seg06]
30 139.999893 -0.000030 -0.000119 3.234760 -5.209333 -1.621493 139.999893
31 139.999893 -0.000030 -0.000119 3.221253 -5.241665 -1.532651 139.999893
[Rope2_Seg07]
30 139.999893 0.000060 -0.000060 1.351780 -3.034185 -0.538813 139.999893
31 139.999893 0.000060 -0.000060 1.340772 -3.049592 -0.494179 139.999893
[Rope2_Seg09]
30 121.338966 0.000089 -0.000060 33.793236 -1.359788 -0.847141 121.338966
31 121.338966 0.000089 -0.000060 33.793236 -1.359788 -0.847141 121.338966
[R_mid_hand01]
30 104.680779 11.144459 -10.335981 -16.212055 45.237240 70.462852 105.778534
31 104.680779 11.144459 -10.335981 -16.212065 45.237255 70.462868 105.778534
[R_mid_hand02]
30 104.070427 2.443552 8.231699 49.067368 -67.749771 39.286453 104.424065
31 104.070427 2.443552 8.231699 49.067390 -67.749802 39.286472 104.424065
[R_mid_hand03]
30 106.028137 -11.221827 -5.996406 -177.101105 15.551026 -76.585571 106.788818
31 106.028137 -11.221827 -5.996406 -177.101105 15.551029 -76.585594 106.788818
[spine02]
30 129.756927 0.001550 0.000119 0.360589 -4.044751 -12.930015 129.756927
31 129.756927 0.001550 0.000119 0.360061 -4.044798 -12.915060 129.756927
[spine03]
30 78.613899 0.081487 -4.898988 1.897248 3.830916 16.495567 78.766441
31 78.613892 0.081482 -4.898987 1.896495 3.831288 16.473051 78.766426
[pelvis]
30 169.435242 0.051022 0.000000 -0.060504 -0.180212 14.112840 169.435257
31 169.435242 0.051022 0.000000 -0.060465 -0.180225 14.087932 169.435257
[null_rope03_connect]
30 -1.257226 -2.466202 137.391083 159.709320 -89.414497 -97.103035 137.418976
31 -1.257226 -2.466202 137.391083 156.330505 -89.382614 -94.432030 137.418976
[null_rope04_connect]
30 -1.259640 -2.480268 -137.844437 159.709320 -89.414497 -97.103035 137.872513
31 -1.259640 -2.480268 -137.844437 156.330505 -89.382614 -94.432030 137.872513
[Rope3_Seg01]
30 0.000010 0.000038 -0.000114 -133.431152 20.504738 -83.466606 0.000121
31 0.000010 0.000038 -0.000114 -133.717514 22.371916 -83.269600 0.000121
[Rope3_Seg02]
30 139.999924 -0.000119 0.000060 0.078917 -1.500666 -2.121381 139.999924
31 139.999924 -0.000119 0.000060 0.111649 -1.326836 -2.235378 139.999924
[Rope3_Seg03]
30 139.999924 -0.000119 0.000119 0.125028 -1.850388 -3.042714 139.999924
31 139.999924 -0.000119 0.000119 0.146275 -1.656750 -3.156535 139.999924
[Rope3_Seg04]
30 139.999924 0.000119 0.000000 0.100494 -2.424778 -4.433905 139.999924
31 139.999924 0.000119 0.000000 0.106356 -2.216602 -4.641586 139.999924
[Rope3_Seg05]
30 139.999924 -0.000238 0.000060 0.144104 1.490273 5.238342 139.999924
31 139.999924 -0.000238 0.000060 0.130973 1.426523 5.213302 139.999924
[Rope3_Seg06]
30 139.999893 -0.000119 -0.000060 0.293573 2.293339 6.654678 139.999893
31 139.999893 -0.000119 -0.000060 0.259868 2.186153 6.772552 139.999893
[Rope3_Seg07]
30 139.999771 0.000060 -0.000119 0.323059 0.938176 2.996900 139.999771
31 139.999771 0.000060 -0.000119 0.307586 0.903860 3.031301 139.999771
[Rope3_Seg08]
30 139.999985 -0.000060 0.000000 0.382915 0.613558 1.917821 139.999985
31 139.999985 -0.000060 0.000000 0.372738 0.588914 1.942412 139.999985
[Rope3_Seg09]
30 90.185997 -0.000179 -0.000060 89.793228 -1.359877 -0.847183 90.185997
31 90.185997 -0.000179 -0.000060 89.793228 -1.359877 -0.847183 90.185997
[R_rear_hand01]
30 103.366196 -6.073594 -10.757982 -177.714203 24.565960 -73.910950 104.101845
31 103.366196 -6.073594 -10.757982 -177.714203 24.565968 -73.910957 104.101845
[R_rear_hand02]
30 100.509819 12.039542 -7.992327 -12.874829 36.868488 72.167213 101.543350
31 100.509819 12.039542 -7.992327 -12.874833 36.868492 72.167229 101.543350
[R_rear_hand03]
30 101.539970 5.215704 5.435467 71.484581 -71.816628 21.513813 101.819031
31 101.539970 5.215704 5.435467 71.484634 -71.816643 21.513817 101.819031
[Rope4_Seg01]
30 0.000010 0.000038 -0.000114 45.623367 27.480738 -113.606033 0.000121
31 0.000010 0.000038 -0.000114 45.398613 29.075901 -113.951134 0.000121
[Rope4_Seg02]
30 139.999985 0.000060 0.000119 0.142297 1.773151 4.288342 139.999985
31 139.999985 0.000060 0.000119 0.132858 1.783400 4.293164 139.999985
[Rope4_Seg03]
30 139.999924 0.000000 -0.000238 -0.095056 2.587592 6.240702 139.999924
31 139.999924 0.000000 -0.000238 -0.113953 2.598562 6.255140 139.999924
[Rope4_Seg04]
30 139.999985 0.000000 0.000119 -2.593975 6.805765 20.575937 139.999985
31 139.999985 0.000000 0.000119 -2.663458 6.940515 20.610741 139.999985
[Rope4_Seg05]
30 139.999802 -0.000060 -0.000119 1.366015 1.455231 -3.221330 139.999802
31 139.999802 -0.000060 -0.000119 1.239909 1.367679 -2.788386 139.999802
[Rope4_Seg06]
30 139.999924 0.000000 0.000060 5.071667 -3.775169 -20.772869 139.999924
31 139.999924 0.000000 0.000060 5.282620 -4.058453 -21.174166 139.999924
[Rope4_Seg07]
30 139.999802 0.000000 0.000000 0.669112 -1.213953 -5.507544 139.999802
31 139.999802 0.000000 0.000000 0.675569 -1.327080 -5.592526 139.999802
[Rope4_Seg08]
30 139.999924 0.000000 0.000119 -1.291689 -0.684904 -2.968496 139.999924
31 139.999924 0.000000 0.000119 -1.294886 -0.744748 -3.002448 139.999924
[Rope4_Seg09]
30 90.185791 0.000060 0.000060 -135.617828 2.228885 0.850567 90.185791
31 90.185791 0.000060 0.000060 -135.617828 2.228885 0.850567 90.185791
[L_rear_hand01]
30 101.696655 -8.392275 -7.654577 -12.874829 -36.868488 107.832764 102.329041
31 101.696655 -8.392275 -7.654577 -12.874833 -36.868492 107.832779 102.329041
[L_rear_hand02]
30 102.726799 -1.568258 5.773216 71.484581 71.816628 158.486160 102.900848
31 102.726799 -1.568258 5.773216 71.484634 71.816643 158.486176 102.900848
[L_rear_hand03]
30 104.552910 9.721220 -10.420293 -177.714203 -24.565960 -106.089035 105.519653
31 104.552910 9.721220 -10.420293 -177.714203 -24.565968 -106.089043 105.519653
